<svg  viewBox="0 0 1660 333" version="1.1" xmlns="http://www.w3.org/2000/svg" xmlns:xlink="http://www.w3.org/1999/xlink">
    <g id="Page-1" stroke="none" stroke-width="1" fill="none" fill-rule="evenodd">
        <g id="Group" transform="translate(0.000000, 0.000000)" fill-rule="nonzero">
            <g id="Group-18">
                <path d="M181.520591,156.09561 C181.520591,156.09561 181.958362,178.619476 193.113262,186.245537 C208.873017,197.023373 247.991571,203.800721 263.908263,192.647967 C273.609433,185.8459 276.739908,177.573004 276.739908,177.573004 C276.739908,177.573004 288.791,184.276192 294.539841,186.566894 C300.288683,188.861716 314,191.407857 314,191.407857 C314,191.407857 313.483761,208.575764 313.182277,212.003578 C311.683118,229.060246 308.565032,254.42689 299.367712,279.661695 C290.170391,304.89238 283.847492,325.53754 279.820825,327.259687 C275.798287,328.977714 267.175025,314.644344 264.300604,305.465055 C261.426184,296.289886 262.57843,292.849713 259.704009,292.849713 C256.829588,292.849713 245.331905,330.127185 237.85676,330.127185 C230.385744,330.127185 221.762481,293.422388 221.762481,293.422388 C221.762481,293.422388 202.219724,299.73418 160.829717,297.439357 C119.439711,295.144535 92.4218075,287.691513 92.4218075,287.691513 C92.4218075,287.691513 83.224487,333.567358 77.4756455,332.994683 C71.7268041,332.417887 62.5294836,298.012033 60.2291211,298.012033 C57.9328884,298.012033 38.9600595,332.994683 32.6371598,331.845212 C26.3142602,330.69986 21.1394768,232.063703 21.713535,206.256222 C22.2917231,180.452861 5.04519858,174.717866 1.0226615,154.645381 C-3.0040055,134.572896 5.61925675,108.19686 13.6684608,100.739717 C21.713535,93.2866949 13.0944027,144.324861 36.6596969,156.367528 C60.2291211,168.410194 154.502688,184.193792 181.520591,156.09561" id="Fill-10" fill="#F43F5E"></path>
                <path d="M370.760731,0 C378.212725,0 401.13275,31.0457001 398.839513,56.3457152 C396.550392,81.6415997 389.670679,93.141231 351.850784,111.538989 C314.026771,129.936747 315.171332,147.186194 313.454491,160.408292 C311.733534,173.63452 313.454491,185.134151 313.454491,185.134151 C313.454491,185.134151 303.13698,183.407554 292.251306,178.81018 C281.361515,174.208675 276.779156,170.759612 276.779156,170.759612 C276.779156,170.759612 277.351437,158.685825 273.913639,140.288067 C270.471723,121.890309 265.317085,116.140494 265.317085,116.140494 C265.317085,116.140494 275.630479,168.45886 264.168408,182.833399 C252.710453,197.207938 205.145327,195.481341 192.534578,171.907923 C179.927946,148.334505 204.56893,75.3176286 211.448643,64.3921527 C218.324239,53.4708074 216.603281,46.5685502 223.482994,41.3970206 C230.358591,36.2213604 248.123978,15.5228501 277.923717,18.9719133 C307.723456,22.4209766 320.902367,29.8973892 336.950914,17.8236025 C352.995344,5.74981567 365.601976,0 370.760731,0" id="Fill-12" fill="#F43F5E"></path>
                <path d="M315.421642,208.366405 C320.733135,201.723326 343.031542,189.948841 345.646178,191.075348 C348.256703,192.201856 335.578185,211.650671 335.195856,217.386746 C334.82586,223.027565 346.020285,241.822012 343.405649,242.948519 C340.795124,244.075026 316.913958,226.411228 313.555219,219.643902 C310.19648,212.876575 312.963226,211.43945 315.421642,208.366405" id="Fill-14" fill="#F43F5E"></path>
                <path d="M307.578358,208.366405 C302.266865,201.723326 279.968458,189.948841 277.353822,191.075348 C274.743297,192.201856 287.421815,211.650671 287.804144,217.386746 C288.17414,223.027565 276.979715,241.822012 279.594351,242.948519 C282.204876,244.075026 306.086042,226.411228 309.444781,219.643902 C312.80352,212.876575 310.036774,211.43945 307.578358,208.366405" id="Fill-16" fill="#FFFFFE"></path>
            </g>
            <g id="HUNDESCHULE" transform="translate(488.880000, 182.040000)" fill="#F43F5E">
                <polygon id="Path" points="97.52 1.28 97.52 116.96 75.92 116.96 75.92 66.4 21.6 66.4 21.6 116.96 -1.13686838e-13 116.96 -1.13686838e-13 1.28 21.6 1.28 21.6 51.04 75.92 51.04 75.92 1.28"></polygon>
                <path d="M169.84,99.6 C174,99.6 177.72,98.9066667 181,97.52 C184.28,96.1333333 187.04,94.1866667 189.28,91.68 C191.52,89.1733333 193.24,86.1333333 194.44,82.56 C195.64,78.9866667 196.24,74.9866667 196.24,70.56 L196.24,1.28 L217.76,1.28 L217.76,70.56 C217.76,77.44 216.653333,83.8 214.44,89.64 C212.226667,95.48 209.053333,100.52 204.92,104.76 C200.786667,109 195.76,112.306667 189.84,114.68 C183.92,117.053333 177.253333,118.24 169.84,118.24 C162.373333,118.24 155.68,117.053333 149.76,114.68 C143.84,112.306667 138.813333,109 134.68,104.76 C130.546667,100.52 127.373333,95.48 125.16,89.64 C122.946667,83.8 121.84,77.44 121.84,70.56 L121.84,1.28 L143.36,1.28 L143.36,70.48 C143.36,74.9066667 143.96,78.9066667 145.16,82.48 C146.36,86.0533333 148.093333,89.1066667 150.36,91.64 C152.626667,94.1733333 155.4,96.1333333 158.68,97.52 C161.96,98.9066667 165.68,99.6 169.84,99.6 Z" id="Path"></path>
                <path d="M339.6,1.28 L339.6,116.96 L328.56,116.96 C326.853333,116.96 325.426667,116.68 324.28,116.12 C323.133333,115.56 322.026667,114.613333 320.96,113.28 L260.56,36.16 C260.88,39.68 261.04,42.9333333 261.04,45.92 L261.04,116.96 L242.08,116.96 L242.08,1.28 L253.36,1.28 C254.266667,1.28 255.053333,1.32 255.72,1.4 C256.386667,1.48 256.973333,1.64 257.48,1.88 C257.986667,2.12 258.48,2.46666667 258.96,2.92 C259.44,3.37333333 259.973333,3.97333333 260.56,4.72 L321.2,82.16 C321.04,80.2933333 320.906667,78.4533333 320.8,76.64 C320.693333,74.8266667 320.64,73.1466667 320.64,71.6 L320.64,1.28 L339.6,1.28 Z" id="Path"></path>
                <path d="M468.08,59.12 C468.08,67.6 466.666667,75.3866667 463.84,82.48 C461.013333,89.5733333 457.04,95.68 451.92,100.8 C446.8,105.92 440.64,109.893333 433.44,112.72 C426.24,115.546667 418.24,116.96 409.44,116.96 L365.36,116.96 L365.36,1.28 L409.44,1.28 C418.24,1.28 426.24,2.70666667 433.44,5.56 C440.64,8.41333333 446.8,12.3866667 451.92,17.48 C457.04,22.5733333 461.013333,28.6666667 463.84,35.76 C466.666667,42.8533333 468.08,50.64 468.08,59.12 Z M446,59.12 C446,52.7733333 445.16,47.08 443.48,42.04 C441.8,37 439.373333,32.7333333 436.2,29.24 C433.026667,25.7466667 429.186667,23.0666667 424.68,21.2 C420.173333,19.3333333 415.093333,18.4 409.44,18.4 L386.96,18.4 L386.96,99.84 L409.44,99.84 C415.093333,99.84 420.173333,98.9066667 424.68,97.04 C429.186667,95.1733333 433.026667,92.4933333 436.2,89 C439.373333,85.5066667 441.8,81.24 443.48,76.2 C445.16,71.16 446,65.4666667 446,59.12 Z" id="Shape"></path>
                <polygon id="Path" points="508.64 18.4 508.64 50.48 549.12 50.48 549.12 67.04 508.64 67.04 508.64 99.76 560 99.76 560 116.96 487.04 116.96 487.04 1.28 560 1.28 560 18.4"></polygon>
                <path d="M640.64,22.32 C640,23.44 639.32,24.2533333 638.6,24.76 C637.88,25.2666667 636.986667,25.52 635.92,25.52 C634.8,25.52 633.586667,25.1066667 632.28,24.28 C630.973333,23.4533333 629.413333,22.5333333 627.6,21.52 C625.786667,20.5066667 623.666667,19.5866667 621.24,18.76 C618.813333,17.9333333 615.946667,17.52 612.64,17.52 C609.653333,17.52 607.04,17.88 604.8,18.6 C602.56,19.32 600.68,20.32 599.16,21.6 C597.64,22.88 596.506667,24.4133333 595.76,26.2 C595.013333,27.9866667 594.64,29.9466667 594.64,32.08 C594.64,34.8 595.4,37.0666667 596.92,38.88 C598.44,40.6933333 600.453333,42.24 602.96,43.52 C605.466667,44.8 608.32,45.9466667 611.52,46.96 C614.72,47.9733333 618,49.0533333 621.36,50.2 C624.72,51.3466667 628,52.68 631.2,54.2 C634.4,55.72 637.253333,57.64 639.76,59.96 C642.266667,62.28 644.28,65.12 645.8,68.48 C647.32,71.84 648.08,75.92 648.08,80.72 C648.08,85.9466667 647.186667,90.84 645.4,95.4 C643.613333,99.96 641,103.933333 637.56,107.32 C634.12,110.706667 629.92,113.373333 624.96,115.32 C620,117.266667 614.32,118.24 607.92,118.24 C604.24,118.24 600.613333,117.88 597.04,117.16 C593.466667,116.44 590.04,115.413333 586.76,114.08 C583.48,112.746667 580.4,111.146667 577.52,109.28 C574.64,107.413333 572.08,105.333333 569.84,103.04 L576.16,92.72 C576.693333,91.9733333 577.386667,91.3466667 578.24,90.84 C579.093333,90.3333333 580,90.08 580.96,90.08 C582.293333,90.08 583.733333,90.6266667 585.28,91.72 C586.826667,92.8133333 588.666667,94.0266667 590.8,95.36 C592.933333,96.6933333 595.426667,97.9066667 598.28,99 C601.133333,100.093333 604.56,100.64 608.56,100.64 C614.693333,100.64 619.44,99.1866667 622.8,96.28 C626.16,93.3733333 627.84,89.2 627.84,83.76 C627.84,80.72 627.08,78.24 625.56,76.32 C624.04,74.4 622.026667,72.7866667 619.52,71.48 C617.013333,70.1733333 614.16,69.0666667 610.96,68.16 C607.76,67.2533333 604.506667,66.2666667 601.2,65.2 C597.893333,64.1333333 594.64,62.8533333 591.44,61.36 C588.24,59.8666667 585.386667,57.92 582.88,55.52 C580.373333,53.12 578.36,50.12 576.84,46.52 C575.32,42.92 574.56,38.48 574.56,33.2 C574.56,28.9866667 575.4,24.88 577.08,20.88 C578.76,16.88 581.2,13.3333333 584.4,10.24 C587.6,7.14666667 591.546667,4.66666667 596.24,2.8 C600.933333,0.933333333 606.32,0 612.4,0 C619.226667,0 625.52,1.06666667 631.28,3.2 C637.04,5.33333333 641.946667,8.32 646,12.16 L640.64,22.32 Z" id="Path"></path>
                <path d="M746.24,89.68 C747.413333,89.68 748.453333,90.1333333 749.36,91.04 L757.84,100.24 C753.146667,106.053333 747.373333,110.506667 740.52,113.6 C733.666667,116.693333 725.44,118.24 715.84,118.24 C707.253333,118.24 699.533333,116.773333 692.68,113.84 C685.826667,110.906667 679.973333,106.826667 675.12,101.6 C670.266667,96.3733333 666.546667,90.1333333 663.96,82.88 C661.373333,75.6266667 660.08,67.7066667 660.08,59.12 C660.08,50.4266667 661.466667,42.4666667 664.24,35.24 C667.013333,28.0133333 670.92,21.7866667 675.96,16.56 C681,11.3333333 687.013333,7.26666667 694,4.36 C700.986667,1.45333333 708.72,0 717.2,0 C725.626667,0 733.106667,1.38666667 739.64,4.16 C746.173333,6.93333333 751.733333,10.56 756.32,15.04 L749.12,25.04 C748.693333,25.68 748.146667,26.24 747.48,26.72 C746.813333,27.2 745.893333,27.44 744.72,27.44 C743.92,27.44 743.093333,27.2133333 742.24,26.76 C741.386667,26.3066667 740.453333,25.7466667 739.44,25.08 C738.426667,24.4133333 737.253333,23.68 735.92,22.88 C734.586667,22.08 733.04,21.3466667 731.28,20.68 C729.52,20.0133333 727.48,19.4533333 725.16,19 C722.84,18.5466667 720.16,18.32 717.12,18.32 C711.946667,18.32 707.213333,19.24 702.92,21.08 C698.626667,22.92 694.933333,25.5866667 691.84,29.08 C688.746667,32.5733333 686.346667,36.84 684.64,41.88 C682.933333,46.92 682.08,52.6666667 682.08,59.12 C682.08,65.6266667 683,71.4133333 684.84,76.48 C686.68,81.5466667 689.173333,85.8133333 692.32,89.28 C695.466667,92.7466667 699.173333,95.4 703.44,97.24 C707.706667,99.08 712.293333,100 717.2,100 C720.133333,100 722.786667,99.84 725.16,99.52 C727.533333,99.2 729.72,98.6933333 731.72,98 C733.72,97.3066667 735.613333,96.4133333 737.4,95.32 C739.186667,94.2266667 740.96,92.88 742.72,91.28 C743.253333,90.8 743.813333,90.4133333 744.4,90.12 C744.986667,89.8266667 745.6,89.68 746.24,89.68 Z" id="Path"></path>
                <polygon id="Path" points="870.16 1.28 870.16 116.96 848.56 116.96 848.56 66.4 794.24 66.4 794.24 116.96 772.64 116.96 772.64 1.28 794.24 1.28 794.24 51.04 848.56 51.04 848.56 1.28"></polygon>
                <path d="M942.48,99.6 C946.64,99.6 950.36,98.9066667 953.64,97.52 C956.92,96.1333333 959.68,94.1866667 961.92,91.68 C964.16,89.1733333 965.88,86.1333333 967.08,82.56 C968.28,78.9866667 968.88,74.9866667 968.88,70.56 L968.88,1.28 L990.4,1.28 L990.4,70.56 C990.4,77.44 989.293333,83.8 987.08,89.64 C984.866667,95.48 981.693333,100.52 977.56,104.76 C973.426667,109 968.4,112.306667 962.48,114.68 C956.56,117.053333 949.893333,118.24 942.48,118.24 C935.013333,118.24 928.32,117.053333 922.4,114.68 C916.48,112.306667 911.453333,109 907.32,104.76 C903.186667,100.52 900.013333,95.48 897.8,89.64 C895.586667,83.8 894.48,77.44 894.48,70.56 L894.48,1.28 L916,1.28 L916,70.48 C916,74.9066667 916.6,78.9066667 917.8,82.48 C919,86.0533333 920.733333,89.1066667 923,91.64 C925.266667,94.1733333 928.04,96.1333333 931.32,97.52 C934.6,98.9066667 938.32,99.6 942.48,99.6 Z" id="Path"></path>
                <polygon id="Path" points="1082.48 99.2 1082.48 116.96 1014.72 116.96 1014.72 1.28 1036.24 1.28 1036.24 99.2"></polygon>
                <polygon id="Path" points="1119.44 18.4 1119.44 50.48 1159.92 50.48 1159.92 67.04 1119.44 67.04 1119.44 99.76 1170.8 99.76 1170.8 116.96 1097.84 116.96 1097.84 1.28 1170.8 1.28 1170.8 18.4"></polygon>
            </g>
            <g id="Group-2" transform="translate(486.000000, 39.000000)" fill="#F43F5E">
                <path d="M0,100.538071 L17.1314741,100.538071 L17.1314741,55.9796954 L2.39043825,55.9796954 L2.39043825,45.035533 C10.7569721,43.4720812 16.3346614,41.322335 21.9123506,38 L35.2589641,38 L35.2589641,100.538071 L50,100.538071 L50,115 L0,115 L0,100.538071 Z" id="Path"></path>
                <path d="M74.9852941,103.160494 C98.8294118,80.4444444 115.776471,64.4444444 115.776471,51.0123457 C115.776471,41.9259259 110.652941,36.9876543 102.573529,36.9876543 C95.8735294,36.9876543 90.5529412,41.5308642 85.8235294,46.4691358 L74,34.8148148 C83.2617647,24.9382716 91.9323529,20 105.332353,20 C123.855882,20 136.467647,31.8518519 136.467647,50.0246914 C136.467647,65.8271605 121.688235,82.8148148 106.317647,98.617284 C111.244118,98.0246914 117.747059,97.6296296 122.082353,97.6296296 L141,97.6296296 L141,116 L74.9852941,116 L74.9852941,103.160494 Z" id="Path"></path>
                <path d="M170,101.211963 L181.992718,84.6392439 C188.873786,91.149955 197.131068,96.0823119 206.567961,96.0823119 C217.57767,96.0823119 224.851942,91.3472493 224.851942,82.6663012 C224.851942,72.8015874 219.150485,66.6854649 194.575243,66.6854649 L194.575243,48.1398031 C214.825243,48.1398031 221.116505,42.0236805 221.116505,32.9481439 C221.116505,25.0563729 216.004854,20.5186046 207.354369,20.5186046 C199.293689,20.5186046 193.395631,24.0699015 186.317961,30.3833183 L173.145631,14.4024821 C183.565534,5.5242397 194.771845,0 208.533981,0 C231.929612,0 247.264563,11.0484794 247.264563,30.9752012 C247.264563,42.6155634 240.580097,50.9019229 228.587379,56.0315741 L228.587379,56.8207512 C241.563107,60.5693424 251,69.644879 251,84.2446554 C251,105.157849 231.73301,116.995505 209.123786,116.995505 C190.839806,117.192799 178.257282,110.879382 170,101.211963 L170,101.211963 Z" id="Path"></path>
            </g>
        </g>
    </g>
</svg>
